<svg width="901" height="902" viewBox="0 0 901 902" fill="none" xmlns="http://www.w3.org/2000/svg">
<path opacity="0.18" d="M522.934 3.87968C524.106 0.780232 527.569 -0.782661 530.668 0.389447L679.785 56.781C682.884 57.9532 684.446 61.416 683.274 64.5154L595.977 295.355L825.173 196.267C828.215 194.952 831.747 196.353 833.062 199.394L896.327 345.726C897.642 348.768 896.241 352.3 893.2 353.615L671.783 449.341L896.493 536.862C899.58 538.065 901.108 541.543 899.906 544.631L842.046 693.183C840.844 696.271 837.366 697.799 834.278 696.596L603.387 606.668L698.519 825.489C699.84 828.528 698.447 832.062 695.409 833.384L549.205 896.945C546.166 898.266 542.631 896.874 541.31 893.835L449.506 682.67L368.031 898.12C366.859 901.219 363.396 902.781 360.296 901.609L211.18 845.219C208.081 844.046 206.518 840.584 207.69 837.484L292.456 613.337L75.1577 707.283C72.116 708.598 68.584 707.198 67.269 704.156L4.00433 557.824C2.68938 554.782 4.0889 551.25 7.13031 549.935L220.681 457.609L3.82367 373.146C0.736163 371.944 -0.791745 368.465 0.410581 365.378L58.27 216.825C59.4726 213.737 62.9508 212.208 66.0385 213.411L282.08 297.556L185.983 76.5115C184.662 73.4727 186.055 69.9383 189.093 68.617L335.297 5.05546C338.336 3.7343 341.871 5.12687 343.192 8.16581L438.45 227.28L522.934 3.87968Z" fill="#7DA5FF"/>
</svg>
