<svg viewBox="0 0 8 12" xmlns="http://www.w3.org/2000/svg"><path d="M5.573 2.838C6.329 3.631 7.024 4.27 7.603 5c.504.636.377 1.614-.21 2.2a263 263 0 0 1-4.288 4.183c-.734.696-1.86.637-2.57-.067a1.8 1.8 0 0 1-.533-1.27 1.77 1.77 0 0 1 .533-1.268c1.106-1.127 2.247-2.22 3.37-3.33.716-.71 1.556-1.335 1.668-2.61"/><path d="M2.972 5.522c-.954-.953-1.8-1.745-2.58-2.598-.572-.628-.495-1.65.08-2.286.59-.65 1.632-.868 2.325-.348.61.454 1.156.984 1.627 1.578.524.664.39 1.59-.19 2.243-.394.447-.795.89-1.262 1.411"/></svg>