<svg viewBox="0 0 15 15" xmlns="http://www.w3.org/2000/svg"><path d="M10.709 7.861c.882.844 1.776 1.628 2.582 2.493.72.773.602 1.98-.16 2.693-.745.697-1.874.69-2.653-.041q-.568-.529-1.093-1.1c-.748-.804-.755-1.954-.006-2.748.432-.461.9-.885 1.33-1.297"/><path d="M3.907 6.563c-.902-.86-1.798-1.646-2.61-2.512-.708-.755-.6-1.929.147-2.645a1.91 1.91 0 0 1 2.618-.052q.664.593 1.242 1.27a1.93 1.93 0 0 1-.01 2.536c-.437.511-.942.958-1.387 1.403"/><path d="M10.385 1.407A2 2 0 1 1 13.2 4.25l-8.964 8.878a2 2 0 1 1-2.815-2.842z"/></svg>