<svg viewBox="0 0 25 24" xmlns="http://www.w3.org/2000/svg"><path d="M6.057 8.734c.77.73 1.515 1.342 2.138 2.06.668.77.586 1.896-.137 2.628a255 255 0 0 1-4.607 4.545c-.869.834-2.106.787-2.894-.041s-.734-2.04.128-2.9c1.298-1.3 2.596-2.6 3.91-3.885.69-.68 1.392-1.335 1.462-2.407"/><path d="M15.216 6.078c-.628.677-1.211 1.392-1.886 2.006a1.99 1.99 0 0 1-2.728-.073 259 259 0 0 1-4.619-4.604A1.976 1.976 0 0 1 5.97.647c.817-.827 2.034-.879 2.9-.052 1.3 1.236 2.563 2.512 3.837 3.776 1.175 1.166 1.172 1.17 2.509 1.707"/><path d="M8.857 17.854c.652-.688 1.257-1.411 1.952-2.032a1.954 1.954 0 0 1 2.632.054 165 165 0 0 1 4.752 4.728c.768.8.659 2.013-.126 2.75-.837.79-2.053.77-2.904-.066a714 714 0 0 1-3.911-3.874c-1.099-1.09-1.098-1.09-2.395-1.56"/><path d="M18.015 15.366c-.827-.877-1.588-1.584-2.221-2.391-.552-.704-.413-1.785.23-2.433a289 289 0 0 1 4.69-4.627c.803-.77 2.034-.705 2.81.074a1.98 1.98 0 0 1 0 2.807c-1.209 1.247-2.457 2.456-3.686 3.684-.783.785-1.701 1.476-1.823 2.886"/><path d="M11.406 20.744c-.879.918-1.695 1.848-2.594 2.686-.804.75-2.06.627-2.803-.166-.725-.776-.718-1.95.043-2.76q.552-.59 1.144-1.138c.838-.778 2.034-.785 2.86-.006.48.45.921.937 1.35 1.384"/><path d="M20.859 12.397c1.043 1.055 1.97 1.931 2.821 2.874.627.695.542 1.826-.086 2.529-.646.72-1.785.96-2.544.385a9.6 9.6 0 0 1-1.78-1.746c-.572-.734-.425-1.758.209-2.48.43-.495.869-.986 1.38-1.562"/><path d="M3.096 11.472C2.198 10.541 1.34 9.68.518 8.786a1.98 1.98 0 0 1-.02-2.631c.695-.788 1.882-.975 2.696-.332a10.7 10.7 0 0 1 1.607 1.598c.56.685.508 1.692-.042 2.393q-.326.39-.698.738c-.28.28-.571.547-.965.92"/><path d="M12.69 3.213c.896-.938 1.714-1.87 2.615-2.715.785-.737 2.007-.624 2.753.152a1.99 1.99 0 0 1 .053 2.724q-.617.69-1.32 1.293a2.01 2.01 0 0 1-2.64-.01c-.532-.455-.997-.98-1.46-1.444"/></svg>