<svg width="629" height="215" viewBox="0 0 629 215" fill="none" xmlns="http://www.w3.org/2000/svg">
<path opacity="0.34" d="M53 89.9091H127.1C144.221 89.9091 158.1 103.788 158.1 120.909V176C158.1 193.121 171.979 207 189.1 207H366.112C383.232 207 397.112 193.121 397.112 176V54C397.112 36.8792 410.991 23 428.112 23H565" stroke="#333333" stroke-dasharray="6 6"/>
<circle cx="50" cy="90" r="6" fill="#D0C3FD" stroke="white" stroke-width="4"/>
<circle cx="280" cy="207" r="6" fill="#C4E861" stroke="white" stroke-width="4"/>
<circle cx="569" cy="23" r="6" fill="#6F9AFA" stroke="white" stroke-width="4"/>
<g clip-path="url(#clip0_4089_415)">
<path d="M301.804 172.575L294.56 185.414C294.438 185.632 294.274 185.823 294.078 185.976C293.881 186.13 293.657 186.244 293.417 186.311C293.177 186.378 292.926 186.397 292.678 186.366C292.431 186.336 292.192 186.257 291.975 186.135L272.113 174.929C271.896 174.807 271.705 174.643 271.551 174.446C271.397 174.25 271.284 174.026 271.217 173.786C271.15 173.545 271.131 173.295 271.161 173.047C271.191 172.8 271.27 172.561 271.393 172.344L278.637 159.504C278.759 159.287 278.923 159.096 279.119 158.942C279.315 158.788 279.54 158.675 279.78 158.608C280.02 158.541 280.271 158.522 280.519 158.552C280.766 158.583 281.005 158.661 281.222 158.784L301.084 169.99C301.301 170.112 301.492 170.276 301.646 170.472C301.8 170.668 301.913 170.893 301.98 171.133C302.047 171.373 302.066 171.624 302.036 171.872C302.005 172.119 301.927 172.358 301.804 172.575Z" fill="#BBACEE"/>
<path d="M278.992 161.656L299.779 173.384L297.632 177.189L276.845 165.461L278.992 161.656Z" fill="#EAEAEA"/>
<path d="M276.623 173.574L275.728 173.069C275.557 172.973 275.432 172.813 275.379 172.624C275.327 172.435 275.351 172.233 275.447 172.063C275.544 171.892 275.704 171.766 275.893 171.714C276.081 171.661 276.283 171.686 276.454 171.782L277.349 172.287C277.52 172.383 277.645 172.543 277.698 172.732C277.75 172.921 277.726 173.123 277.63 173.294C277.533 173.464 277.373 173.59 277.184 173.642C276.996 173.695 276.794 173.67 276.623 173.574ZM283.713 177.574L279.656 175.285C279.485 175.189 279.36 175.029 279.307 174.84C279.255 174.651 279.279 174.449 279.376 174.279C279.472 174.108 279.632 173.983 279.821 173.93C280.01 173.877 280.212 173.902 280.382 173.998L284.439 176.287C284.61 176.384 284.735 176.544 284.788 176.732C284.84 176.921 284.816 177.123 284.72 177.294C284.623 177.465 284.463 177.59 284.274 177.643C284.086 177.695 283.884 177.671 283.713 177.574Z" fill="#D0C3FD"/>
<path opacity="0.25" d="M301.804 172.576L301.691 172.776L300.486 172.657L298.06 172.415L287.257 171.335L272.778 169.889L278.637 159.505C278.759 159.288 278.923 159.097 279.119 158.943C279.315 158.789 279.54 158.676 279.78 158.609C280.02 158.542 280.271 158.523 280.519 158.553C280.766 158.584 281.005 158.662 281.222 158.785L301.084 169.991C301.301 170.113 301.492 170.277 301.646 170.473C301.8 170.669 301.913 170.894 301.98 171.134C302.047 171.374 302.066 171.625 302.036 171.873C302.005 172.12 301.927 172.359 301.804 172.576L301.804 172.576Z" fill="white"/>
</g>
<path d="M293.3 173.629V188.371C293.3 188.62 293.251 188.867 293.156 189.097C293.061 189.328 292.921 189.537 292.745 189.713C292.568 189.89 292.359 190.029 292.129 190.125C291.899 190.22 291.652 190.269 291.402 190.269H268.598C268.348 190.269 268.101 190.22 267.871 190.125C267.641 190.029 267.431 189.89 267.255 189.713C267.079 189.537 266.939 189.328 266.844 189.097C266.749 188.867 266.7 188.62 266.7 188.371V173.629C266.7 173.38 266.749 173.133 266.844 172.903C266.939 172.672 267.079 172.463 267.255 172.287C267.431 172.11 267.641 171.971 267.871 171.875C268.101 171.78 268.348 171.731 268.598 171.731H291.402C291.652 171.731 291.899 171.78 292.129 171.875C292.359 171.971 292.568 172.11 292.745 172.287C292.921 172.463 293.061 172.672 293.156 172.903C293.251 173.133 293.3 173.38 293.3 173.629Z" fill="#87B3FF"/>
<path d="M268.066 175.328H291.934V179.697H268.066V175.328Z" fill="#EAEAEA"/>
<path d="M271.859 186.872H270.832C270.636 186.872 270.448 186.795 270.309 186.656C270.171 186.517 270.093 186.329 270.093 186.134C270.093 185.938 270.171 185.75 270.309 185.611C270.448 185.472 270.636 185.395 270.832 185.395H271.859C272.055 185.395 272.243 185.472 272.382 185.611C272.52 185.75 272.598 185.938 272.598 186.134C272.598 186.329 272.52 186.517 272.382 186.656C272.243 186.795 272.055 186.872 271.859 186.872ZM280 186.872H275.342C275.146 186.872 274.958 186.795 274.819 186.656C274.681 186.517 274.603 186.329 274.603 186.134C274.603 185.938 274.681 185.75 274.819 185.611C274.958 185.472 275.146 185.395 275.342 185.395H280C280.196 185.395 280.384 185.472 280.523 185.611C280.661 185.75 280.739 185.938 280.739 186.134C280.739 186.329 280.661 186.517 280.523 186.656C280.384 186.795 280.196 186.872 280 186.872Z" fill="#4D94CE"/>
<path opacity="0.25" d="M293.3 173.629V173.859L292.192 174.347L289.96 175.328L280.021 179.696L266.7 185.551V173.629C266.7 173.38 266.749 173.133 266.844 172.903C266.939 172.672 267.079 172.463 267.255 172.287C267.431 172.11 267.641 171.971 267.871 171.875C268.101 171.78 268.348 171.731 268.598 171.731H291.402C291.652 171.731 291.899 171.78 292.129 171.875C292.359 171.971 292.568 172.11 292.745 172.287C292.921 172.463 293.061 172.672 293.156 172.903C293.251 173.133 293.3 173.38 293.3 173.629V173.629Z" fill="white"/>
<path d="M29.25 75.375H6.1875C4.01288 75.375 2.25 77.1379 2.25 79.3125V102.375C2.25 104.55 4.01288 106.312 6.1875 106.312H29.25C31.4246 106.312 33.1875 104.55 33.1875 102.375V79.3125C33.1875 77.1379 31.4246 75.375 29.25 75.375Z" fill="#3FA9F5"/>
<path d="M24.75 83.8122C24.5156 83.4091 23.263 83.9617 22.8259 84.1271C16.2556 86.6155 16.1383 86.3611 9.56253 88.8348C9.1296 88.9979 9.56253 89.5181 9.56253 89.9598C14.0625 89.4372 14.3808 94.4077 14.625 94.4997C14.7936 95.0283 14.4572 95.0959 14.625 95.6247C14.7853 96.1298 22.8067 105.662 22.8259 105.71H29.5843C30.6891 105.71 31.2188 105.265 32 104.5C32.7813 103.734 32.5299 102.582 32.5299 101.5V92.4996C32.3649 92.3745 23.0625 85.4997 24.75 83.8122Z" fill="#1A1A1A" fill-opacity="0.129412"/>
<path d="M24.75 83.5327C24.75 83.6249 22.8565 92.649 22.0953 96.2544C21.9851 96.7776 21.7008 96.8908 21.2584 96.5738C20.1485 95.7784 19.0389 94.9825 17.9298 94.1862C17.4633 93.8514 17.2725 93.8623 16.819 94.2322C16.2625 94.6861 15.7032 95.1366 15.141 95.5838C14.6884 95.9429 14.4232 95.8611 14.253 95.3211C13.8342 93.9916 13.4092 92.6639 13.0024 91.3312C12.938 91.1203 12.8328 91.0091 12.6292 90.9365C11.5962 90.5681 10.5677 90.1886 9.53762 89.8131C9.33381 89.7386 9.13314 89.6585 9 89.4744C9 89.145 9.09811 88.9878 9.41864 88.8662C14.2872 87.0187 19.1546 85.1685 24.0208 83.3154C24.3443 83.1919 24.5764 83.2321 24.75 83.5327ZM21.1961 86.0217C21.1537 86.044 16.4368 88.905 14.1407 90.3064C13.7949 90.5175 13.6696 90.7825 13.7717 91.1523C14.0062 91.9995 14.2629 92.8407 14.507 93.6854C14.5406 93.8016 14.5735 93.9157 14.7179 93.9175C14.8972 93.9199 14.9054 93.7661 14.9238 93.6487C14.9841 93.2637 15.0492 92.878 15.0791 92.4901C15.0917 92.3015 15.142 92.1173 15.2272 91.948C15.3123 91.7787 15.4307 91.6278 15.5753 91.504C17.141 90.0766 20.9442 86.5843 21.2833 86.269C21.3946 86.1657 21.3856 86.0037 21.1961 86.0217Z" fill="white"/>
<g clip-path="url(#clip1_4089_415)">
<path d="M590.672 6.69892V7.09855C590.672 7.67948 591.143 8.15044 591.724 8.15044H596.715V5.64694H591.724C591.143 5.64694 590.672 6.1179 590.672 6.69892ZM590.672 11.3422V11.7419C590.672 12.3228 591.143 12.7937 591.724 12.7937H596.715V10.2902H591.724C591.143 10.2902 590.672 10.7612 590.672 11.3422Z" fill="#6F9AFA"/>
<path d="M596.655 19.5584H595.339C595.167 19.5584 595.003 19.4902 594.882 19.369C594.761 19.2477 594.692 19.0832 594.692 18.9118V11.1464H597.302V18.9118C597.301 19.0832 597.233 19.2477 597.112 19.3689C596.991 19.4902 596.826 19.5583 596.655 19.5584Z" fill="#FED402"/>
<path d="M608.453 7.76331C607.657 7.7811 606.921 7.38821 606.451 6.74574C605.733 5.76222 604.443 5.50473 602.729 5.50473H598.802V12.7938H602.729C604.443 12.7938 605.733 12.5363 606.452 11.5527C606.921 10.9102 607.657 10.5173 608.453 10.5351L627.352 10.9582C628.246 10.9782 628.984 10.2649 628.995 9.37098L629 8.96614C629.011 8.05674 628.266 7.3193 627.357 7.3397L608.453 7.76331Z" fill="#6F9AFA"/>
<path d="M601.509 4.12445L600.853 9.26549L601.509 14.4065V28.4199H604.118V5.48675C604.118 4.7344 603.508 4.12445 602.756 4.12445H601.509Z" fill="#FED402"/>
<path d="M609.984 24.6103C610.481 25.3143 610.49 26.4169 609.932 27.383C609.374 28.3492 608.415 28.8927 607.557 28.8137C607.059 28.1097 607.05 27.0071 607.608 26.0409C608.166 25.0748 609.125 24.5313 609.984 24.6103Z" fill="#97DA7B"/>
<path d="M590.351 36.6153H617.903V33.2752C611.735 26.4451 592.674 23.4069 590.351 36.6153Z" fill="#FEE45A"/>
<path d="M613.822 30.2021C611.023 28.6987 607.563 27.6888 604.16 27.4737C606.864 30.1254 603.569 33.2682 600.541 36.5156C600.448 36.6157 602.564 39.98 602.221 40.9053L610.991 36.6153L613.822 30.2021Z" fill="#FED402"/>
<path d="M589.444 36.3798V37.6283H608.001C601.323 33.7113 589.957 30.1869 589.444 36.3798ZM610.316 36.6153H612.306C612.269 36.5171 612.211 36.4285 612.135 36.3561C612.04 36.2651 611.943 36.1755 611.845 36.0874C607.633 32.3087 600.536 30.4132 594.44 29.789C593.92 30.1624 593.439 30.5855 593.001 31.0525C601.309 31.6358 607.234 34.1814 610.316 36.6153Z" fill="#FED402"/>
<path d="M596.216 28.7531C599.407 29.0684 602.507 29.6988 605.224 30.5887C608.636 31.7063 611.31 33.1741 613.172 34.9515C613.301 35.0749 613.473 35.1437 613.652 35.1435C613.79 35.1435 613.926 35.102 614.041 35.0243C614.156 34.9466 614.245 34.8362 614.296 34.7075C614.348 34.5787 614.36 34.4375 614.33 34.302C614.301 34.1664 614.231 34.0428 614.131 33.9471C612.118 32.0257 609.266 30.4519 605.656 29.2693C603.7 28.6287 601.555 28.1189 599.322 27.7579C598.229 27.9742 597.184 28.3019 596.216 28.7531Z" fill="#FED402"/>
<path d="M605.035 30.5287C605.098 30.5489 605.161 30.5683 605.223 30.5887C608.041 31.5115 610.353 32.6737 612.123 34.0511L612.699 32.7463C610.841 31.3618 608.482 30.1952 605.655 29.2695C605.475 29.2103 605.291 29.1535 605.107 29.0965C605.203 29.5632 605.17 30.0411 605.035 30.5287ZM604.399 31.9446C604.165 32.334 603.887 32.728 603.577 33.126C606.502 34.1421 608.768 35.3927 610.316 36.6153H610.991L611.395 35.7008C609.477 34.113 607.038 32.8775 604.399 31.9446Z" fill="#FAC600"/>
<path d="M613.476 28.8397C607.926 30.6737 603.61 34.3472 598.952 36.4038L620.269 36.0014C622.949 32.4869 619.549 26.8324 613.476 28.8397Z" fill="#FEE45A"/>
<path d="M615.552 31.1732C611.847 32.3978 608.691 34.4421 605.616 36.2779L620.269 36.0013C621.319 34.6248 621.435 32.9202 620.824 31.476C619.497 30.7105 617.691 30.4663 615.552 31.1732Z" fill="#FED402"/>
<path d="M617.903 33.2753C612.423 34.6856 608.013 37.9532 603.379 39.6365L624.979 36.8259C624.442 34.3566 621.834 32.2638 617.903 33.2753Z" fill="#FEE45A"/>
<path d="M628.238 35.69H583.762C583.56 35.69 583.366 35.7702 583.223 35.913C583.08 36.0558 583 36.2495 583 36.4515V36.8053C583 37.6975 583.723 38.4209 584.616 38.4209H585.793C586.502 38.4209 587.182 38.7032 587.682 39.2056L588.854 40.3819C589.326 40.8554 589.886 41.231 590.503 41.4874C591.121 41.7437 591.782 41.8756 592.451 41.8756H619.549C620.218 41.8756 620.879 41.7436 621.497 41.4873C622.114 41.231 622.674 40.8553 623.146 40.3819L624.318 39.2056C624.566 38.9569 624.86 38.7595 625.185 38.6249C625.509 38.4902 625.856 38.4209 626.208 38.4209H627.385C628.277 38.4209 629 37.6975 629 36.8053V36.4515C629 36.2495 628.92 36.0559 628.777 35.9131C628.634 35.7703 628.44 35.69 628.238 35.69Z" fill="#6F9AFA"/>
<path d="M619.549 41.8755C620.218 41.8755 620.879 41.7435 621.497 41.4872C622.114 41.2309 622.674 40.8552 623.146 40.3818L624.318 39.2055C624.566 38.9568 624.86 38.7594 625.185 38.6248C625.509 38.4901 625.857 38.4208 626.208 38.4208H627.385C628.277 38.4208 629 37.6974 629 36.8052V36.4514C629 36.2494 628.92 36.0557 628.777 35.9129C628.634 35.7701 628.441 35.6899 628.239 35.6899H623.723L620.009 39.8286C619.162 40.7735 618.094 41.4711 616.918 41.8755H619.549Z" fill="#507CDC"/>
<path d="M596.713 25.0358C596.215 25.7398 596.206 26.8423 596.764 27.8085C597.322 28.7747 598.281 29.3182 599.14 29.2392C599.637 28.5352 599.646 27.4326 599.089 26.4664C598.531 25.5003 597.571 24.9569 596.713 25.0358ZM622.07 29.4997C622.567 30.2038 622.576 31.3063 622.019 32.2725C621.461 33.2387 620.501 33.7821 619.643 33.7032C619.145 32.9992 619.136 31.8966 619.694 30.9304C620.252 29.9642 621.211 29.4208 622.07 29.4997Z" fill="#97DA7B"/>
<path d="M598.802 4.12445H601.509V14.4066H598.802L598.133 8.92058L598.802 4.12445Z" fill="#FEE45A"/>
<path d="M596.095 4.12445H598.802V14.4066H596.095L595.605 8.80567L596.095 4.12445Z" fill="#FED402"/>
<path d="M593.388 5.20051V13.3304C593.388 13.9247 593.87 14.4065 594.464 14.4065H596.095V4.12445H594.464C593.87 4.12445 593.388 4.60619 593.388 5.20051Z" fill="#FEE45A"/>
</g>
<defs>
<clipPath id="clip0_4089_415">
<rect width="28" height="22" fill="white" transform="translate(279.811 156) rotate(29.4316)"/>
</clipPath>
<clipPath id="clip1_4089_415">
<rect width="46" height="46" fill="white" transform="translate(583)"/>
</clipPath>
</defs>
</svg>
