<svg width="247" height="223" viewBox="0 0 247 223" fill="none" xmlns="http://www.w3.org/2000/svg">
<path opacity="0.07" d="M217.311 2.22091C217.981 0.446722 219.964 -0.447963 221.738 0.222858L282.13 23.0617C283.904 23.7327 284.799 25.7143 284.128 27.4885L248.08 122.81L342.733 81.8889C344.474 81.1363 346.496 81.9379 347.249 83.6789L372.871 142.943C373.624 144.684 372.822 146.705 371.081 147.458L279.667 186.979L372.44 223.113C374.208 223.801 375.082 225.791 374.394 227.559L350.961 287.723C350.272 289.49 348.281 290.365 346.514 289.677L251.167 252.54L290.438 342.87C291.195 344.61 290.398 346.633 288.658 347.389L229.445 373.131C227.706 373.887 225.683 373.09 224.927 371.351L187.043 284.211L153.421 373.12C152.75 374.895 150.767 375.788 148.993 375.117L88.6016 352.279C86.8273 351.609 85.9325 349.626 86.6035 347.852L121.597 255.318L31.9014 294.097C30.1604 294.849 28.1395 294.049 27.3867 292.308L1.76465 233.043C1.01191 231.302 1.81263 229.28 3.55371 228.528L91.6855 190.424L2.18848 155.567C0.42104 154.878 -0.453064 152.887 0.235352 151.119L23.668 90.9563C24.3564 89.1887 26.3477 88.3137 28.1152 89.0022L117.273 123.728L77.5996 32.4699C76.8435 30.7304 77.6413 28.7066 79.3809 27.9504L138.593 2.20821C140.332 1.45208 142.356 2.24993 143.112 3.98946L182.435 94.4416L217.311 2.22091Z" fill="white"/>
</svg>
