<svg width="152" height="143" viewBox="0 0 152 143" fill="none" xmlns="http://www.w3.org/2000/svg">
<path d="M119.756 3.87939C120.928 0.780013 124.391 -0.782759 127.491 0.38916L153.899 10.3765C156.998 11.5488 158.56 15.0115 157.388 18.1108L138.524 67.9927L188.101 46.5601C191.143 45.2451 194.675 46.6454 195.99 49.687L207.194 75.6011C208.509 78.6427 207.109 82.1748 204.067 83.4897L156.314 104.134L204.776 123.009C207.864 124.212 209.392 127.69 208.189 130.778L197.943 157.085C196.74 160.173 193.262 161.702 190.174 160.5L140.263 141.059L160.76 188.205C162.081 191.243 160.689 194.778 157.65 196.099L131.757 207.356C128.718 208.677 125.184 207.284 123.863 204.246L104.147 158.896L86.6489 205.167C85.4767 208.267 82.014 209.829 78.9146 208.657L52.5073 198.67C49.4078 197.498 47.845 194.036 49.0171 190.936L67.2866 142.624L20.5024 162.851C17.4609 164.166 13.9288 162.767 12.6138 159.725L1.41064 133.81C0.095649 130.768 1.495 127.236 4.53662 125.921L50.4399 106.075L3.82471 87.9185C0.736985 86.7158 -0.79191 83.2376 0.410645 80.1499L10.6577 53.8423C11.8604 50.7545 15.3385 49.2266 18.4263 50.4292L64.853 68.5112L44.1294 20.8423C42.8082 17.8034 44.2009 14.2689 47.2397 12.9478L73.1313 1.69092C76.1702 0.369781 79.7047 1.76245 81.0259 4.80127L101.552 52.0161L119.756 3.87939Z" fill="#6693F8"/>
</svg>
