<svg width="25" height="24" viewBox="0 0 25 24" fill="none" xmlns="http://www.w3.org/2000/svg">
<path d="M6.05724 8.73358C6.82663 9.46441 7.57208 10.0764 8.19549 10.794C8.86317 11.5633 8.78061 12.6901 8.05789 13.4221C6.54224 14.9558 5.00666 16.4706 3.45113 17.9667C2.58243 18.8007 1.34519 18.7539 0.556658 17.9259C-0.231874 17.0979 -0.176833 15.8858 0.684689 15.0266C1.98296 13.7257 3.28122 12.4261 4.59504 11.1409C5.28546 10.4616 5.98664 9.80642 6.05724 8.73358Z" fill="#6F9AFA"/>
<path d="M15.2157 6.0779C14.5875 6.75472 14.0048 7.46994 13.3299 8.08436C12.9514 8.42293 12.4583 8.60388 11.9514 8.59027C11.4444 8.57667 10.9617 8.36954 10.6018 8.01116C9.04303 6.49591 7.50346 4.96106 5.98303 3.40661C5.62141 3.03964 5.41752 2.5452 5.41506 2.02926C5.4126 1.51332 5.61177 1.01695 5.96987 0.646524C6.78712 -0.180302 8.00402 -0.231904 8.86914 0.594922C10.1698 1.83096 11.4334 3.1066 12.7065 4.37144C13.8815 5.53668 13.8791 5.54028 15.2157 6.0779Z" fill="#6F9AFA"/>
<path d="M8.85718 17.8539C9.5093 17.1662 10.1136 16.4426 10.8088 15.8222C11.1757 15.5013 11.6487 15.329 12.1354 15.339C12.6221 15.349 13.0877 15.5405 13.4412 15.8762C15.0542 17.4207 16.6444 18.9963 18.1927 20.6044C18.9609 21.4036 18.852 22.6168 18.0671 23.3536C17.2295 24.1445 16.0138 24.1241 15.163 23.2876C13.8548 22.002 12.551 20.7108 11.2515 19.4139C10.1531 18.3243 10.1542 18.3231 8.85718 17.8539Z" fill="#6F9AFA"/>
<path d="M18.0145 15.3662C17.1877 14.489 16.4267 13.7821 15.7937 12.9745C15.2421 12.2713 15.3809 11.19 16.0235 10.542C17.5718 8.98198 19.1345 7.43513 20.714 5.91468C21.5169 5.14425 22.7481 5.21026 23.5247 5.98908C23.7094 6.17283 23.8561 6.39144 23.9562 6.63232C24.0563 6.8732 24.1078 7.13157 24.1078 7.39253C24.1078 7.65348 24.0563 7.91185 23.9562 8.15273C23.8561 8.39361 23.7094 8.61223 23.5247 8.79597C22.315 10.0428 21.067 11.2524 19.8381 12.4801C19.0555 13.2649 18.1366 13.9561 18.0145 15.3662Z" fill="#6F9AFA"/>
<path d="M11.4058 20.7436C10.5275 21.6616 9.71146 22.5916 8.81165 23.4304C8.00756 24.1793 6.75237 24.0569 6.00931 23.2636C5.28419 22.4884 5.29137 21.3136 6.05238 20.5036C6.41853 20.1099 6.80143 19.7307 7.1963 19.3659C8.03389 18.5883 9.23044 18.5811 10.0561 19.3599C10.5359 19.8099 10.9774 20.2971 11.4058 20.7436Z" fill="#6F9AFA"/>
<path d="M20.8585 12.3973C21.9019 13.4521 22.8281 14.3282 23.68 15.2714C24.307 15.9662 24.2221 17.0967 23.5939 17.7999C22.9477 18.5199 21.8086 18.7599 21.05 18.1851C20.3837 17.6832 19.7855 17.0962 19.2707 16.439C18.6976 15.7046 18.8447 14.681 19.4789 13.9586C19.9097 13.4641 20.3476 12.9733 20.8585 12.3973Z" fill="#6F9AFA"/>
<path d="M3.09585 11.4721C2.19843 10.5409 1.34049 9.68042 0.518458 8.7864C0.193957 8.42652 0.0125987 7.95962 0.0088484 7.47444C0.00509816 6.98925 0.179218 6.51958 0.498116 6.15471C1.19332 5.36748 2.3803 5.18028 3.19396 5.8235C3.78497 6.29682 4.32371 6.8323 4.80094 7.42075C5.36093 8.10597 5.30948 9.11281 4.75906 9.81363C4.54183 10.0737 4.30886 10.3202 4.06147 10.5517C3.78147 10.8313 3.48951 11.0989 3.09585 11.4721Z" fill="#6F9AFA"/>
<path d="M12.6909 3.2134C13.5859 2.27497 14.4044 1.34254 15.3054 0.497714C16.0903 -0.23911 17.312 -0.126307 18.0575 0.650118C18.4114 1.01155 18.614 1.49499 18.6241 2.00143C18.6341 2.50788 18.4506 2.99899 18.1113 3.37421C17.7008 3.83464 17.2595 4.26646 16.7903 4.66665C16.4229 4.98404 15.9537 5.15782 15.4687 5.15606C14.9838 5.1543 14.5158 4.97711 14.1507 4.65705C13.6194 4.20223 13.154 3.67662 12.6909 3.2134Z" fill="#6F9AFA"/>
</svg>
