<svg width="488" height="489" viewBox="0 0 488 489" fill="none" xmlns="http://www.w3.org/2000/svg">
<path d="M282.533 3.87955C283.705 0.78021 287.168 -0.782511 290.267 0.389313L366.217 29.111C369.316 30.2832 370.878 33.746 369.707 36.8454L323.213 159.787L445.31 107.002C448.352 105.687 451.883 107.086 453.198 110.128L485.42 184.659C486.735 187.7 485.336 191.232 482.294 192.548L364.425 243.506L484.046 290.096C487.134 291.299 488.662 294.777 487.459 297.865L457.99 373.527C456.787 376.615 453.309 378.144 450.221 376.941L327.243 329.042L377.872 445.499C379.193 448.538 377.8 452.072 374.761 453.393L300.295 485.766C297.256 487.087 293.722 485.695 292.401 482.656L243.581 370.361L200.252 484.936C199.08 488.036 195.617 489.598 192.518 488.426L116.569 459.705C113.469 458.533 111.907 455.07 113.079 451.97L158.196 332.665L42.5679 382.656C39.5264 383.971 35.9952 382.571 34.6802 379.53L2.45752 304.998C1.14275 301.956 2.54214 298.425 5.5835 297.11L119.171 248.001L3.82373 203.075C0.735988 201.872 -0.791922 198.394 0.410645 195.306L29.8804 119.644C31.083 116.557 34.5603 115.028 37.6479 116.23L152.554 160.984L101.4 43.317C100.079 40.2782 101.471 36.7437 104.51 35.4225L178.976 3.04849C182.015 1.72733 185.55 3.1199 186.872 6.15884L237.569 122.776L282.533 3.87955Z" fill="#E9EDF5"/>
</svg>
