<svg width="97" height="14" viewBox="0 0 97 14" fill="none" xmlns="http://www.w3.org/2000/svg">
<g clip-path="url(#clip0_6032_284)">
<path d="M5.5625 0C10.1447 5.42554e-05 14.6699 1.01601 18.8125 2.97461L34.7148 10.4932C42.8994 14.3628 52.3666 14.4613 60.6299 10.7627L78.6328 2.70508C82.6167 0.921971 86.9321 2.243e-05 91.2969 0H154.763C160.248 5.22085e-05 165.558 1.93339 169.759 5.46094C174.165 9.16077 177.014 14.33 177.835 19.9463H178.743C178.743 19.9979 174.515 364.901 178.743 455.632C182.972 546.369 133.636 553.868 133.636 553.868H-30.8184C-72.1668 556.868 -79.3719 508.124 -77.8057 483.378V45.6221C-77.8791 44.8257 -77.9189 44.0187 -77.9189 43.2031V23.6992C-77.9189 22.9263 -77.8798 22.1583 -77.8057 21.3975V19.9463H-77.6182C-76.6033 13.6171 -73.0523 7.90567 -67.6904 4.20117C-63.7307 1.46543 -59.0316 0 -54.2188 0H5.5625Z" fill="white"/>
<rect x="34.0811" width="33" height="3" rx="1.5" fill="white"/>
</g>
<defs>
<clipPath id="clip0_6032_284">
<rect width="97" height="14" fill="white"/>
</clipPath>
</defs>
</svg>
