<svg width="488" height="327" viewBox="0 0 488 327" fill="none" xmlns="http://www.w3.org/2000/svg">
<path opacity="0.71" d="M282.44 -157.123C283.615 -160.221 287.08 -161.785 290.181 -160.615L366.101 -131.968C369.201 -130.798 370.763 -127.338 369.589 -124.239L323.113 -1.61914L445.17 -54.2695C448.212 -55.5821 451.747 -54.1812 453.064 -51.1406L485.267 23.1787C486.585 26.2192 485.186 29.7479 482.143 31.0605L364.312 81.8887L483.894 128.361C486.983 129.562 488.51 133.037 487.306 136.124L457.854 211.57C456.649 214.657 453.169 216.187 450.08 214.986L327.141 167.209L377.751 283.359C379.074 286.397 377.682 289.929 374.642 291.248L300.206 323.536C297.166 324.855 293.628 323.462 292.305 320.424L243.505 208.424L200.194 322.697C199.02 325.796 195.554 327.359 192.454 326.189L116.534 297.542C113.434 296.372 111.872 292.912 113.047 289.813L158.144 170.824L42.5555 220.688C39.513 222 35.9785 220.599 34.661 217.559L2.45883 143.238C1.14146 140.198 2.53947 136.669 5.58188 135.356L119.133 86.3721L3.82309 41.5605C0.734549 40.3603 -0.792734 36.8856 0.411957 33.7988L29.8631 -41.6484C31.0681 -44.7352 34.5489 -46.2648 37.6375 -45.0645L152.507 -0.423828L101.372 -117.784C100.048 -120.822 101.44 -124.354 104.48 -125.673L178.917 -157.962C181.957 -159.28 185.494 -157.886 186.817 -154.849L237.495 -38.5391L282.44 -157.123Z" fill="#6693F8"/>
</svg>
