<svg width="703" height="591" viewBox="0 0 703 591" fill="none" xmlns="http://www.w3.org/2000/svg">
<g clip-path="url(#clip0_6154_71)">
<g opacity="0.1">
<path d="M176.669 254.733C199.11 276.049 220.852 293.9 239.035 314.83C258.509 337.266 256.101 370.132 235.021 391.483C190.815 436.214 146.027 480.397 100.658 524.032C75.3208 548.357 39.2347 546.992 16.2358 522.842C-6.76297 498.691 -5.15762 463.34 19.9701 438.279C57.8361 400.338 95.7022 362.432 134.022 324.946C154.159 305.135 174.61 286.024 176.669 254.733Z" fill="white"/>
<path d="M443.789 177.272C425.466 197.012 408.47 217.873 388.787 235.794C377.747 245.668 363.367 250.946 348.579 250.549C333.792 250.152 319.713 244.111 309.216 233.658C263.753 189.464 218.849 144.697 174.504 99.3594C163.956 88.6561 158.009 74.2349 157.938 59.1867C157.866 44.1385 163.675 29.6609 174.12 18.8569C197.956 -5.25881 233.449 -6.76386 258.681 17.3519C296.617 53.403 333.471 90.6091 370.604 127.5C404.876 161.486 404.806 161.591 443.789 177.272Z" fill="white"/>
<path d="M258.333 520.742C277.353 500.687 294.977 479.581 315.254 461.485C325.956 452.126 339.751 447.102 353.947 447.393C368.143 447.684 381.722 453.27 392.033 463.06C439.078 508.107 485.459 554.063 530.619 600.965C553.025 624.275 549.849 659.661 526.955 681.152C502.525 704.218 467.067 703.623 442.253 679.227C404.097 641.729 366.068 604.068 328.167 566.243C296.129 534.463 296.164 534.428 258.333 520.742Z" fill="white"/>
<path d="M525.418 448.182C501.302 422.596 479.106 401.981 460.644 378.425C444.556 357.914 448.604 326.378 467.345 307.478C512.505 261.976 558.084 216.86 604.151 172.514C627.569 150.043 663.481 151.968 686.131 174.684C691.519 180.043 695.797 186.419 698.716 193.445C701.635 200.471 703.137 208.006 703.137 215.618C703.137 223.229 701.635 230.765 698.716 237.79C695.797 244.816 691.519 251.192 686.131 256.551C650.847 292.917 614.447 328.198 578.605 364.005C555.781 386.895 528.978 407.056 525.418 448.182Z" fill="white"/>
<path d="M332.673 605.015C307.057 631.791 283.255 658.917 257.011 683.383C233.558 705.223 196.948 701.653 175.276 678.518C154.127 655.907 154.336 621.641 176.532 598.015C187.211 586.535 198.379 575.474 209.896 564.834C234.326 542.153 269.225 541.943 293.306 564.659C307.301 577.784 320.179 591.995 332.673 605.015Z" fill="white"/>
<path d="M608.378 361.593C638.81 392.359 665.822 417.909 690.671 445.42C708.958 465.686 706.48 498.657 688.158 519.168C669.312 540.168 636.088 547.168 613.962 530.403C594.527 515.765 577.081 498.645 562.066 479.476C545.349 458.056 549.642 428.2 568.139 407.129C580.702 392.709 593.476 378.393 608.378 361.593Z" fill="white"/>
<path d="M90.2907 334.598C64.1161 307.437 39.093 282.341 15.117 256.265C5.65243 245.769 0.362822 232.151 0.25344 218C0.144058 203.849 5.22253 190.15 14.5237 179.508C34.8004 156.547 69.4208 151.087 93.1525 169.848C110.39 183.653 126.103 199.271 140.023 216.434C156.356 236.42 154.855 265.786 138.801 286.226C132.465 293.813 125.67 301.001 118.455 307.752C110.288 315.907 101.773 323.712 90.2907 334.598Z" fill="white"/>
<path d="M370.149 93.7202C396.254 66.3494 420.126 39.1536 446.405 14.5128C469.299 -6.97783 504.932 -3.68774 526.674 18.9579C536.995 29.4997 542.907 43.6 543.199 58.3712C543.491 73.1425 538.141 87.4667 528.245 98.4104C516.271 111.84 503.398 124.434 489.715 136.107C478.999 145.364 465.312 150.432 451.169 150.381C437.026 150.33 423.376 145.162 412.727 135.827C397.232 122.561 383.656 107.231 370.149 93.7202Z" fill="white"/>
</g>
</g>
<defs>
<clipPath id="clip0_6154_71">
<rect width="703" height="591" fill="white"/>
</clipPath>
</defs>
</svg>
